STARTFONT 2.1
COMMENT Exported by Fony v1.4.6
FONT Fixed
SIZE 40 100 100
FONTBOUNDINGBOX 22 39 0 -2
STARTPROPERTIES 6
COPYRIGHT "Public domain terminal emulator font.  Share and enjoy. orig"
RESOLUTION_X 100
RESOLUTION_Y 100
FONT_ASCENT 38
FONT_DESCENT 2
DEFAULT_CHAR 0
ENDPROPERTIES
CHARS 256
STARTCHAR 000
ENCODING 0
SWIDTH 1080 0
DWIDTH 15 0
BBX 0 0 0 0
BITMAP
ENDCHAR
STARTCHAR 001
ENCODING 1
SWIDTH 1440 0
DWIDTH 20 0
BBX 17 27 0 4
BITMAP
0E0000
0E0000
0E0000
FFFC00
FFFC00
FFFC00
FFFC00
FE0380
FE0380
FE0380
F00380
F00380
F00380
F00380
F00380
F00380
F00380
F03F80
F03F80
F03F80
0FFF80
0FFF80
0FFF80
003C00
003C00
003C00
003C00
ENDCHAR
STARTCHAR 002
ENCODING 2
SWIDTH 1440 0
DWIDTH 20 0
BBX 17 27 0 4
BITMAP
FE0000
FE0000
FE0000
FFFF80
FFFF80
FFFF80
FFFF80
F00380
F00380
F00380
F00380
F00380
F00380
F00380
F00380
F00380
F00380
F00380
F00380
F00380
F00380
F00380
F00380
FFFF80
FFFF80
FFFF80
FFFF80
ENDCHAR
STARTCHAR 003
ENCODING 3
SWIDTH 1440 0
DWIDTH 20 0
BBX 17 16 0 8
BITMAP
01C000
01E000
01F000
01F800
01FC00
01FE00
FFFF00
FFFF80
FFFF80
FFFF00
01FE00
01FC00
01F800
01F000
01E000
01C000
ENDCHAR
STARTCHAR 004
ENCODING 4
SWIDTH 1440 0
DWIDTH 20 0
BBX 17 28 0 4
BITMAP
008000
01C000
03E000
07F000
0FF800
1FFC00
3FFE00
7FFF00
FFFF80
FFFF80
FFFF80
01C000
01C000
01C000
01C000
01C000
01C000
01C000
01C000
01C000
01C000
01C000
01C000
01C000
FFC000
FFC000
FFC000
FFC000
ENDCHAR
STARTCHAR 005
ENCODING 5
SWIDTH 1440 0
DWIDTH 20 0
BBX 17 30 0 1
BITMAP
01C000
01C000
01C000
0FFC00
0FFC00
0FFC00
0FFC00
F1C380
F1C380
F1C380
F1C380
F1C380
F1C380
F1FF80
F1FF80
F1FF80
F1FF80
F00380
F00380
F00380
F00380
F00380
F00380
0FFC00
0FFC00
0FFC00
0FFC00
01C000
01C000
01C000
ENDCHAR
STARTCHAR 006
ENCODING 6
SWIDTH 1584 0
DWIDTH 22 0
BBX 19 16 1 8
BITMAP
F8F800
FCFC00
FEFE00
7F7F00
3FBF80
1FDFC0
0FEFE0
07EFE0
07EFE0
07EFE0
0FDFC0
1FBF80
3F7F00
FEFE00
FCFC00
F8F800
ENDCHAR
STARTCHAR 007
ENCODING 7
SWIDTH 1440 0
DWIDTH 20 0
BBX 17 30 0 1
BITMAP
FFFF80
FFFF80
FFFF80
F1C380
F1C380
F1C380
F1C380
F00380
F00380
F00380
F00380
F00380
F00380
F00380
F00380
F00380
F00380
F00380
F00380
F00380
F00380
F00380
F00380
F1C380
F1C380
F1C380
F1C380
FFFF80
FFFF80
FFFF80
ENDCHAR
STARTCHAR 008
ENCODING 8
SWIDTH 1440 0
DWIDTH 20 0
BBX 17 33 0 -2
BITMAP
01C000
03E000
07F000
0E3800
0E3800
0E3800
0E3800
0E3800
0E3800
0E3800
0E3800
0E3800
0E3800
0E3800
1E3C00
3E3E00
7C1F00
F80F80
F00780
F00780
F08780
F1C780
F1C780
F1C780
F1C780
F1C780
F08780
F00780
F00780
F80F80
7FFF80
3FFF00
1FFE00
ENDCHAR
STARTCHAR 009
ENCODING 9
SWIDTH 1440 0
DWIDTH 20 0
BBX 9 9 1 15
BITMAP
1C00
3E00
7F00
E380
E380
E380
7F00
3E00
1C00
ENDCHAR
STARTCHAR 010
ENCODING 10
SWIDTH 1080 0
DWIDTH 15 0
BBX 0 0 0 0
BITMAP
ENDCHAR
STARTCHAR 011
ENCODING 11
SWIDTH 1080 0
DWIDTH 15 0
BBX 0 0 0 0
BITMAP
ENDCHAR
STARTCHAR 012
ENCODING 12
SWIDTH 1080 0
DWIDTH 15 0
BBX 0 0 0 0
BITMAP
ENDCHAR
STARTCHAR 013
ENCODING 13
SWIDTH 1080 0
DWIDTH 15 0
BBX 0 0 0 0
BITMAP
ENDCHAR
STARTCHAR 014
ENCODING 14
SWIDTH 1080 0
DWIDTH 15 0
BBX 0 0 0 0
BITMAP
ENDCHAR
STARTCHAR 015
ENCODING 15
SWIDTH 1080 0
DWIDTH 15 0
BBX 0 0 0 0
BITMAP
ENDCHAR
STARTCHAR 016
ENCODING 16
SWIDTH 1080 0
DWIDTH 15 0
BBX 0 0 0 0
BITMAP
ENDCHAR
STARTCHAR 017
ENCODING 17
SWIDTH 1080 0
DWIDTH 15 0
BBX 0 0 0 0
BITMAP
ENDCHAR
STARTCHAR 018
ENCODING 18
SWIDTH 1080 0
DWIDTH 15 0
BBX 0 0 0 0
BITMAP
ENDCHAR
STARTCHAR 019
ENCODING 19
SWIDTH 1080 0
DWIDTH 15 0
BBX 0 0 0 0
BITMAP
ENDCHAR
STARTCHAR 020
ENCODING 20
SWIDTH 1080 0
DWIDTH 15 0
BBX 0 0 0 0
BITMAP
ENDCHAR
STARTCHAR 021
ENCODING 21
SWIDTH 1080 0
DWIDTH 15 0
BBX 0 0 0 0
BITMAP
ENDCHAR
STARTCHAR 022
ENCODING 22
SWIDTH 1080 0
DWIDTH 15 0
BBX 0 0 0 0
BITMAP
ENDCHAR
STARTCHAR 023
ENCODING 23
SWIDTH 1080 0
DWIDTH 15 0
BBX 0 0 0 0
BITMAP
ENDCHAR
STARTCHAR 024
ENCODING 24
SWIDTH 1080 0
DWIDTH 15 0
BBX 0 0 0 0
BITMAP
ENDCHAR
STARTCHAR 025
ENCODING 25
SWIDTH 1080 0
DWIDTH 15 0
BBX 0 0 0 0
BITMAP
ENDCHAR
STARTCHAR 026
ENCODING 26
SWIDTH 1080 0
DWIDTH 15 0
BBX 0 0 0 0
BITMAP
ENDCHAR
STARTCHAR 027
ENCODING 27
SWIDTH 1080 0
DWIDTH 15 0
BBX 0 0 0 0
BITMAP
ENDCHAR
STARTCHAR 028
ENCODING 28
SWIDTH 1080 0
DWIDTH 15 0
BBX 0 0 0 0
BITMAP
ENDCHAR
STARTCHAR 029
ENCODING 29
SWIDTH 1080 0
DWIDTH 15 0
BBX 0 0 0 0
BITMAP
ENDCHAR
STARTCHAR 030
ENCODING 30
SWIDTH 1080 0
DWIDTH 15 0
BBX 0 0 0 0
BITMAP
ENDCHAR
STARTCHAR 031
ENCODING 31
SWIDTH 1080 0
DWIDTH 15 0
BBX 0 0 0 0
BITMAP
ENDCHAR
STARTCHAR 032
ENCODING 32
SWIDTH 1440 0
DWIDTH 20 0
BBX 0 0 0 0
BITMAP
ENDCHAR
STARTCHAR 033
ENCODING 33
SWIDTH 1440 0
DWIDTH 20 0
BBX 3 24 7 4
BITMAP
E0
E0
E0
E0
E0
E0
E0
E0
E0
E0
E0
E0
E0
E0
E0
E0
E0
00
00
00
E0
E0
E0
E0
ENDCHAR
STARTCHAR 034
ENCODING 34
SWIDTH 1440 0
DWIDTH 20 0
BBX 9 10 4 21
BITMAP
E380
E380
E380
E380
E380
E380
E380
E380
E380
E380
ENDCHAR
STARTCHAR 035
ENCODING 35
SWIDTH 1440 0
DWIDTH 20 0
BBX 17 20 0 4
BITMAP
0E3800
0E3800
0E3800
FFFF80
FFFF80
FFFF80
0E3800
0E3800
0E3800
0E3800
0E3800
0E3800
0E3800
FFFF80
FFFF80
FFFF80
0E3800
0E3800
0E3800
0E3800
ENDCHAR
STARTCHAR 036
ENCODING 36
SWIDTH 1440 0
DWIDTH 20 0
BBX 16 30 1 1
BITMAP
0380
0380
0380
0380
1FFC
3FFE
7FFF
E38F
E387
E387
E380
E380
E380
F380
7FFC
3FFE
1FFF
038F
0387
0387
E387
E387
E387
F38F
7FFE
3FFC
1FF8
0380
0380
0380
ENDCHAR
STARTCHAR 037
ENCODING 37
SWIDTH 1440 0
DWIDTH 20 0
BBX 17 24 0 4
BITMAP
FE0380
FE0380
FE0380
FE0380
FE0780
FE0F80
FE1F80
003F00
007E00
00FC00
01F800
01F000
03E000
07C000
0F8000
1F0000
3E0000
FC3F80
F83F80
F03F80
F03F80
F03F80
F03F80
F03F80
ENDCHAR
STARTCHAR 038
ENCODING 38
SWIDTH 1440 0
DWIDTH 20 0
BBX 16 24 1 4
BITMAP
1C00
1C00
3E00
7F00
F780
E380
E380
E380
E380
F780
7F00
3E00
3C00
7E00
F787
E38F
E3DF
E1FC
E0FC
F1FE
7FFF
3FCF
1F87
1F87
ENDCHAR
STARTCHAR 039
ENCODING 39
SWIDTH 1440 0
DWIDTH 20 0
BBX 3 10 7 21
BITMAP
E0
E0
E0
E0
E0
E0
E0
E0
E0
E0
ENDCHAR
STARTCHAR 040
ENCODING 40
SWIDTH 1440 0
DWIDTH 20 0
BBX 9 30 4 1
BITMAP
0380
0780
0F00
1E00
1C00
3800
3800
3800
7000
7000
E000
E000
E000
E000
E000
E000
E000
E000
E000
E000
7000
7000
3800
3800
3C00
1C00
1E00
0F00
0780
0380
ENDCHAR
STARTCHAR 041
ENCODING 41
SWIDTH 1440 0
DWIDTH 20 0
BBX 9 30 7 1
BITMAP
E000
F000
7800
3C00
1C00
0E00
0E00
0E00
0700
0700
0380
0380
0380
0380
0380
0380
0380
0380
0380
0380
0700
0700
0E00
0E00
1E00
1C00
3C00
7800
F000
E000
ENDCHAR
STARTCHAR 042
ENCODING 42
SWIDTH 1440 0
DWIDTH 20 0
BBX 18 24 0 4
BITMAP
01E000
01E000
01E000
E1E1C0
F1E3C0
F9E7C0
7DEF80
3FFF00
1FFE00
0FFC00
01E000
01E000
01E000
01E000
0FFC00
1FFE00
3FFF00
7DEF80
F9E7C0
F1E3C0
C1E1C0
01E000
01E000
01E000
ENDCHAR
STARTCHAR 043
ENCODING 43
SWIDTH 1440 0
DWIDTH 20 0
BBX 17 17 0 7
BITMAP
01C000
01C000
01C000
01C000
01C000
01C000
01C000
FFFF80
FFFF80
FFFF80
01C000
01C000
01C000
01C000
01C000
01C000
01C000
ENDCHAR
STARTCHAR 044
ENCODING 44
SWIDTH 1440 0
DWIDTH 20 0
BBX 6 10 4 1
BITMAP
F8
FC
FC
1C
1C
1C
3C
F8
F0
E0
ENDCHAR
STARTCHAR 045
ENCODING 45
SWIDTH 1440 0
DWIDTH 20 0
BBX 17 4 0 14
BITMAP
FFFF80
FFFF80
FFFF80
FFFF80
ENDCHAR
STARTCHAR 046
ENCODING 46
SWIDTH 1440 0
DWIDTH 20 0
BBX 6 7 4 4
BITMAP
FC
FC
FC
FC
FC
FC
FC
ENDCHAR
STARTCHAR 047
ENCODING 47
SWIDTH 1440 0
DWIDTH 20 0
BBX 17 24 0 4
BITMAP
000180
000380
000780
000F80
000F00
001E00
003C00
003C00
007800
00F800
00F000
01E000
03C000
07C000
078000
0F0000
0F0000
1E0000
3C0000
780000
F00000
F00000
E00000
C00000
ENDCHAR
STARTCHAR 048
ENCODING 48
SWIDTH 1440 0
DWIDTH 20 0
BBX 18 24 0 4
BITMAP
0FFC00
1FFE00
3FFF00
7FFF80
F807C0
F00FC0
F01FC0
F03FC0
F07FC0
F0FFC0
F1FBC0
F3F3C0
F7E3C0
FFC3C0
FF83C0
FF03C0
FE03C0
FC03C0
F803C0
F807C0
7FFF80
3FFF00
1FFE00
0FFC00
ENDCHAR
STARTCHAR 049
ENCODING 49
SWIDTH 1440 0
DWIDTH 20 0
BBX 10 24 4 4
BITMAP
1E00
1E00
3E00
7E00
FE00
FE00
FE00
FE00
1E00
1E00
1E00
1E00
1E00
1E00
1E00
1E00
1E00
1E00
1E00
1E00
FFC0
FFC0
FFC0
FFC0
ENDCHAR
STARTCHAR 050
ENCODING 50
SWIDTH 1440 0
DWIDTH 20 0
BBX 18 24 0 4
BITMAP
0FFC00
1FFE00
3FFF00
7FFF80
F807C0
F003C0
F003C0
0003C0
0007C0
000FC0
001F80
003F00
007E00
00FC00
01F800
03F000
07E000
0FC000
1F8000
3F0000
FFFFC0
FFFFC0
FFFFC0
FFFFC0
ENDCHAR
STARTCHAR 051
ENCODING 51
SWIDTH 1440 0
DWIDTH 20 0
BBX 17 24 0 4
BITMAP
FFFF80
FFFF80
FFFF80
FFFF80
000380
000780
000F00
001E00
003C00
007800
00F000
01FC00
01FE00
00FF00
000F80
000780
000380
E00380
F00380
F80780
7FFF80
3FFF00
1FFE00
0FFC00
ENDCHAR
STARTCHAR 052
ENCODING 52
SWIDTH 1440 0
DWIDTH 20 0
BBX 17 24 0 4
BITMAP
003C00
007C00
00FC00
01FC00
03FC00
07FC00
0FBC00
1F3C00
3E3C00
7C3C00
F83C00
F03C00
F03C00
F03C00
FFFF80
FFFF80
FFFF80
FFFF80
003C00
003C00
003C00
003C00
003C00
003C00
ENDCHAR
STARTCHAR 053
ENCODING 53
SWIDTH 1440 0
DWIDTH 20 0
BBX 18 24 0 4
BITMAP
FFFF80
FFFF80
FFFF80
FFFF80
F00000
F00000
F00000
FFFC00
FFFE00
FFFF00
FFFF80
0007C0
0003C0
0003C0
0003C0
0003C0
0003C0
E003C0
F003C0
F807C0
7FFF80
3FFF00
1FFE00
0FFC00
ENDCHAR
STARTCHAR 054
ENCODING 54
SWIDTH 1440 0
DWIDTH 20 0
BBX 18 24 0 4
BITMAP
00FC00
01FC00
03FC00
07FC00
0FC000
1F8000
3F0000
7E0000
FC0000
F80000
FFFC00
FFFE00
FFFF00
FFFF80
F007C0
F003C0
F003C0
F003C0
F003C0
F80780
7FFF80
3FFF00
1FFE00
0FFC00
ENDCHAR
STARTCHAR 055
ENCODING 55
SWIDTH 1440 0
DWIDTH 20 0
BBX 17 24 0 4
BITMAP
FFFF80
FFFF80
FFFF80
FFFF80
000780
000780
000780
000F80
001F00
003E00
007C00
00F800
01F000
01E000
01E000
01E000
01E000
01E000
01E000
01E000
01E000
01E000
01E000
01E000
ENDCHAR
STARTCHAR 056
ENCODING 56
SWIDTH 1440 0
DWIDTH 20 0
BBX 18 24 0 4
BITMAP
0FFC00
1FFE00
3FFF00
7FFF80
F807C0
F003C0
F003C0
F003C0
F003C0
F007C0
7FFF80
3FFF00
3FFF00
7FFF80
F807C0
F003C0
F003C0
F003C0
F003C0
F807C0
7FFF80
3FFF00
1FFE00
0FFC00
ENDCHAR
STARTCHAR 057
ENCODING 57
SWIDTH 1440 0
DWIDTH 20 0
BBX 18 24 0 4
BITMAP
0FFC00
1FFE00
3FFF00
7FFF80
F807C0
F003C0
F003C0
F003C0
F003C0
F803C0
7FFFC0
3FFFC0
1FFFC0
0FFFC0
0003C0
0007C0
000F80
001F00
003E00
007C00
0FF800
0FF000
0FE000
0FC000
ENDCHAR
STARTCHAR 058
ENCODING 58
SWIDTH 1440 0
DWIDTH 20 0
BBX 6 17 4 4
BITMAP
FC
FC
FC
FC
FC
FC
FC
00
00
00
FC
FC
FC
FC
FC
FC
FC
ENDCHAR
STARTCHAR 059
ENCODING 59
SWIDTH 1440 0
DWIDTH 20 0
BBX 6 20 4 1
BITMAP
FC
FC
FC
FC
FC
FC
FC
00
00
00
F8
FC
FC
1C
1C
1C
3C
F8
F0
E0
ENDCHAR
STARTCHAR 060
ENCODING 60
SWIDTH 1440 0
DWIDTH 20 0
BBX 9 16 4 8
BITMAP
0380
0780
0F80
1F00
3E00
7C00
F800
F000
F000
F800
7C00
3E00
1F00
0F80
0780
0380
ENDCHAR
STARTCHAR 061
ENCODING 61
SWIDTH 1440 0
DWIDTH 20 0
BBX 17 10 0 11
BITMAP
FFFF80
FFFF80
FFFF80
000000
000000
000000
000000
FFFF80
FFFF80
FFFF80
ENDCHAR
STARTCHAR 062
ENCODING 62
SWIDTH 1440 0
DWIDTH 20 0
BBX 9 16 4 8
BITMAP
E000
F000
F800
7C00
3E00
1F00
0F80
0780
0780
0F80
1F00
7E00
7C00
F800
F000
E000
ENDCHAR
STARTCHAR 063
ENCODING 63
SWIDTH 1440 0
DWIDTH 20 0
BBX 17 24 0 4
BITMAP
0FFC00
1FFE00
3FFF00
7FFF80
F80F80
F00780
E00780
000F80
001F00
003E00
007C00
00F800
01F000
01E000
01E000
01E000
01E000
000000
000000
000000
01E000
01E000
01E000
01E000
ENDCHAR
STARTCHAR 064
ENCODING 64
SWIDTH 1440 0
DWIDTH 20 0
BBX 18 24 0 4
BITMAP
0FFC00
1FFE00
3FFF00
7FFF80
F807C0
F003C0
F003C0
F0FFC0
F1FFC0
F1FFC0
F1E3C0
F1C3C0
F1C3C0
F1E7C0
F1FFC0
F1FFC0
F0FF80
F00000
F00000
F80000
7FFC00
3FFC00
1FFC00
0FFC00
ENDCHAR
STARTCHAR 065
ENCODING 65
SWIDTH 1440 0
DWIDTH 20 0
BBX 18 24 0 4
BITMAP
0FFC00
1FFE00
3FFF00
7FFF80
F807C0
F003C0
F003C0
F003C0
F003C0
F003C0
FFFFC0
FFFFC0
FFFFC0
FFFFC0
F003C0
F003C0
F003C0
F003C0
F003C0
F003C0
F003C0
F003C0
F003C0
F003C0
ENDCHAR
STARTCHAR 066
ENCODING 66
SWIDTH 1440 0
DWIDTH 20 0
BBX 18 24 0 4
BITMAP
FFFC00
FFFE00
FFFF00
FFFF80
1E07C0
1E03C0
1E03C0
1E03C0
1E03C0
1E07C0
1FFF80
1FFF00
1FFF00
1FFF80
1E07C0
1E03C0
1E03C0
1E03C0
1E03C0
1E07C0
FFFF80
FFFF00
FFFE00
FFFC00
ENDCHAR
STARTCHAR 067
ENCODING 67
SWIDTH 1440 0
DWIDTH 20 0
BBX 18 24 0 4
BITMAP
0FFC00
1FFE00
3FFF00
7FFF80
F807C0
F003C0
F003C0
F00000
F00000
F00000
F00000
F00000
F00000
F00000
F00000
F00000
F00000
F003C0
F003C0
F807C0
FFFF80
7FFF00
3FFE00
1FFC00
ENDCHAR
STARTCHAR 068
ENCODING 68
SWIDTH 1440 0
DWIDTH 20 0
BBX 18 24 0 4
BITMAP
FFFC00
FFFE00
FFFF00
FFFF80
1E07C0
1E03C0
1E03C0
1E03C0
1E03C0
1E03C0
1E03C0
1E03C0
1E03C0
1E03C0
1E03C0
1E03C0
1E03C0
1E03C0
1E03C0
1E07C0
FFFF80
FFFF00
FFFE00
FFFC00
ENDCHAR
STARTCHAR 069
ENCODING 69
SWIDTH 1440 0
DWIDTH 20 0
BBX 17 24 0 4
BITMAP
FFFF80
FFFF80
FFFF80
FFFF80
F00000
F00000
F00000
F00000
F00000
F00000
FFFC00
FFFC00
FFFC00
FFFC00
F00000
F00000
F00000
F00000
F00000
F00000
FFFF80
FFFF80
FFFF80
FFFF80
ENDCHAR
STARTCHAR 070
ENCODING 70
SWIDTH 1440 0
DWIDTH 20 0
BBX 17 24 0 4
BITMAP
FFFF80
FFFF80
FFFF80
FFFF80
F00000
F00000
F00000
F00000
F00000
F00000
FFFC00
FFFC00
FFFC00
FFFC00
F00000
F00000
F00000
F00000
F00000
F00000
F00000
F00000
F00000
F00000
ENDCHAR
STARTCHAR 071
ENCODING 71
SWIDTH 1440 0
DWIDTH 20 0
BBX 18 24 0 4
BITMAP
0FFC00
1FFE00
3FFF00
7FFF80
F807C0
F003C0
F003C0
F00000
F00000
F00000
F00000
F00000
F00000
F00000
F03FC0
F03FC0
F03FC0
F003C0
F003C0
F807C0
7FFF80
3FFF00
1FFE00
0FFC00
ENDCHAR
STARTCHAR 072
ENCODING 72
SWIDTH 1440 0
DWIDTH 20 0
BBX 17 24 0 4
BITMAP
F00380
F00380
F00380
F00380
F00380
F00380
F00380
F00380
F00380
F00380
FFFF80
FFFF80
FFFF80
FFFF80
F00380
F00380
F00380
F00380
F00380
F00380
F00380
F00380
F00380
F00380
ENDCHAR
STARTCHAR 073
ENCODING 73
SWIDTH 1440 0
DWIDTH 20 0
BBX 11 24 3 4
BITMAP
FFE0
FFE0
FFE0
FFE0
0E00
0E00
0E00
0E00
0E00
0E00
0E00
0E00
0E00
0E00
0E00
0E00
0E00
0E00
0E00
0E00
FFE0
FFE0
FFE0
FFE0
ENDCHAR
STARTCHAR 074
ENCODING 74
SWIDTH 1440 0
DWIDTH 20 0
BBX 17 24 0 4
BITMAP
01FF80
01FF80
01FF80
01FF80
003C00
003C00
003C00
003C00
003C00
003C00
003C00
003C00
003C00
003C00
003C00
003C00
003C00
F03C00
F03C00
F87C00
7FF800
3FF000
1FE000
0FC000
ENDCHAR
STARTCHAR 075
ENCODING 75
SWIDTH 1440 0
DWIDTH 20 0
BBX 17 24 0 4
BITMAP
F00380
F00780
F00F80
F01F00
F03E00
F07C00
F0F800
F1F000
F3E000
F7C000
FF8000
FF0000
FF0000
FF8000
F7C000
F3E000
F1F000
F0F800
F07C00
F03E00
F01F00
F00F80
F00780
F00380
ENDCHAR
STARTCHAR 076
ENCODING 76
SWIDTH 1440 0
DWIDTH 20 0
BBX 17 24 0 4
BITMAP
F00000
F00000
F00000
F00000
F00000
F00000
F00000
F00000
F00000
F00000
F00000
F00000
F00000
F00000
F00000
F00000
F00000
F00000
F00000
F00000
FFFF80
FFFF80
FFFF80
FFFF80
ENDCHAR
STARTCHAR 077
ENCODING 77
SWIDTH 1440 0
DWIDTH 20 0
BBX 18 24 0 4
BITMAP
F007C0
F007C0
F80FC0
FC1FC0
FE3FC0
FF7FC0
FFFFC0
F7F3C0
F3E3C0
F1C3C0
F003C0
F003C0
F003C0
F003C0
F003C0
F003C0
F003C0
F003C0
F003C0
F003C0
F003C0
F003C0
F003C0
F003C0
ENDCHAR
STARTCHAR 078
ENCODING 78
SWIDTH 1440 0
DWIDTH 20 0
BBX 18 24 0 4
BITMAP
F003C0
F003C0
F003C0
F003C0
F003C0
F803C0
FC03C0
FE03C0
FF03C0
FF83C0
F7C3C0
F3E3C0
F1F3C0
F0FBC0
F07FC0
F03FC0
F01FC0
F00FC0
F007C0
F003C0
F003C0
F003C0
F003C0
F003C0
ENDCHAR
STARTCHAR 079
ENCODING 79
SWIDTH 1440 0
DWIDTH 20 0
BBX 18 24 0 4
BITMAP
0FFC00
1FFE00
3FFF00
7FFF80
F807C0
F003C0
F003C0
F003C0
F003C0
F003C0
F003C0
F003C0
F003C0
F003C0
F003C0
F003C0
F003C0
F003C0
F003C0
F807C0
7FFF80
3FFF00
1FFE00
0FFC00
ENDCHAR
STARTCHAR 080
ENCODING 80
SWIDTH 1440 0
DWIDTH 20 0
BBX 18 24 0 4
BITMAP
FFFC00
FFFE00
FFFF00
FFFF80
F003C0
F003C0
F003C0
F003C0
F003C0
F007C0
FFFF80
FFFF00
FFFE00
FFFC00
F00000
F00000
F00000
F00000
F00000
F00000
F00000
F00000
F00000
F00000
ENDCHAR
STARTCHAR 081
ENCODING 81
SWIDTH 1440 0
DWIDTH 20 0
BBX 18 24 0 4
BITMAP
0FFC00
1FFE00
3FFF00
7FFF80
F807C0
F003C0
F003C0
F003C0
F003C0
F003C0
F003C0
F003C0
F003C0
F003C0
F1C3C0
F1E3C0
F1F3C0
F0F9C0
F07DC0
F83EC0
7FDF40
3FEF80
1FF7C0
0FF3C0
ENDCHAR
STARTCHAR 082
ENCODING 82
SWIDTH 1440 0
DWIDTH 20 0
BBX 18 24 0 4
BITMAP
FFFC00
FFFE00
FFFF00
FFFF80
F007C0
F003C0
F003C0
F003C0
F003C0
F007C0
FFFF80
FFFF00
FFFE00
FFFC00
F7C000
F3E000
F1F000
F0F800
F07C00
F03E00
F01F00
F00F80
F00780
F00380
ENDCHAR
STARTCHAR 083
ENCODING 83
SWIDTH 1440 0
DWIDTH 20 0
BBX 18 24 0 4
BITMAP
0FFC00
1FFE00
3FFF00
7FFF80
F003C0
F003C0
F001C0
F00000
F00000
F80000
7FFC00
3FFE00
1FFF00
0FFF80
0007C0
0003C0
0003C0
E003C0
F003C0
F807C0
7FFF80
3FFF00
1FFE00
0FFC00
ENDCHAR
STARTCHAR 084
ENCODING 84
SWIDTH 1440 0
DWIDTH 20 0
BBX 17 24 0 4
BITMAP
FFFF80
FFFF80
FFFF80
FFFF80
01C000
01C000
01C000
01C000
01C000
01C000
01C000
01C000
01C000
01C000
01C000
01C000
01C000
01C000
01C000
01C000
01C000
01C000
01C000
01C000
ENDCHAR
STARTCHAR 085
ENCODING 85
SWIDTH 1440 0
DWIDTH 20 0
BBX 18 24 0 4
BITMAP
F003C0
F003C0
F003C0
F003C0
F003C0
F003C0
F003C0
F003C0
F003C0
F003C0
F003C0
F003C0
F003C0
F003C0
F003C0
F003C0
F003C0
F003C0
F003C0
F807C0
7FFF80
3FFF00
1FFE00
0FFC00
ENDCHAR
STARTCHAR 086
ENCODING 86
SWIDTH 1440 0
DWIDTH 20 0
BBX 17 24 0 4
BITMAP
F00780
F00780
F00780
F00780
F00780
F00780
F00780
F00780
F00780
F00780
F00780
F00780
F00780
F00780
780F00
3C1E00
3C1E00
1E3C00
0E3800
0F7800
07F000
03E000
03E000
01C000
ENDCHAR
STARTCHAR 087
ENCODING 87
SWIDTH 1440 0
DWIDTH 20 0
BBX 17 24 0 4
BITMAP
F00780
F00780
F00780
F00780
F00780
F00780
F00780
F00780
F00780
F00780
F00780
F00780
F00780
F00780
F1C780
F1C780
F1C780
F1C780
F1C780
FBEF80
7FFF00
3FFE00
1F7C00
0E3800
ENDCHAR
STARTCHAR 088
ENCODING 88
SWIDTH 1440 0
DWIDTH 20 0
BBX 17 24 0 4
BITMAP
F00780
F00780
F00780
F00780
F00780
F80F80
7C1F00
3E3E00
1F7C00
0FF800
07F000
03E000
03E000
07F000
0FF800
1F7C00
3E3E00
7C1F00
F80F80
F00780
F00780
F00780
F00780
F00780
ENDCHAR
STARTCHAR 089
ENCODING 89
SWIDTH 1440 0
DWIDTH 20 0
BBX 17 24 0 4
BITMAP
F00780
F00780
F00780
F00780
F00780
F00780
F80F80
7C1F00
3E3E00
1F7C00
0FF800
07F000
03E000
03E000
03E000
03E000
03E000
03E000
03E000
03E000
03E000
03E000
03E000
03E000
ENDCHAR
STARTCHAR 090
ENCODING 90
SWIDTH 1440 0
DWIDTH 20 0
BBX 17 24 0 4
BITMAP
FFFF80
FFFF80
FFFF80
FFFF80
000780
000F80
001F80
003F00
007E00
00FC00
01F800
03F000
07E000
0FC000
1F8000
3F0000
7E0000
FC0000
F80000
F00000
FFFF80
FFFF80
FFFF80
FFFF80
ENDCHAR
STARTCHAR 091
ENCODING 91
SWIDTH 1440 0
DWIDTH 20 0
BBX 10 30 4 1
BITMAP
FFC0
FFC0
FFC0
E000
E000
E000
E000
E000
E000
E000
E000
E000
E000
E000
E000
E000
E000
E000
E000
E000
E000
E000
E000
E000
E000
E000
E000
FFC0
FFC0
FFC0
ENDCHAR
STARTCHAR 092
ENCODING 92
SWIDTH 1440 0
DWIDTH 20 0
BBX 17 24 0 4
BITMAP
E00000
F00000
F80000
F80000
7C0000
3E0000
3E0000
1F0000
0F0000
0F8000
07C000
03C000
01E000
01F000
00F800
007800
003C00
003E00
001F00
001F00
000F80
000F80
000780
000380
ENDCHAR
STARTCHAR 093
ENCODING 93
SWIDTH 1440 0
DWIDTH 20 0
BBX 10 30 4 1
BITMAP
FFC0
FFC0
FFC0
03C0
03C0
03C0
03C0
03C0
03C0
03C0
03C0
03C0
03C0
03C0
03C0
03C0
03C0
03C0
03C0
03C0
03C0
03C0
03C0
03C0
03C0
03C0
03C0
FFC0
FFC0
FFC0
ENDCHAR
STARTCHAR 094
ENCODING 94
SWIDTH 1440 0
DWIDTH 20 0
BBX 17 10 0 21
BITMAP
01C000
03E000
07F000
0FF800
1FFC00
3F7E00
7E3F00
FC1F80
F80F80
F00780
ENDCHAR
STARTCHAR 095
ENCODING 95
SWIDTH 1440 0
DWIDTH 20 0
BBX 17 3 0 -2
BITMAP
FFFF80
FFFF80
FFFF80
ENDCHAR
STARTCHAR 096
ENCODING 96
SWIDTH 1440 0
DWIDTH 20 0
BBX 10 10 4 21
BITMAP
E000
F000
F800
7C00
3E00
1F00
0F80
07C0
03C0
01C0
ENDCHAR
STARTCHAR 097
ENCODING 97
SWIDTH 1440 0
DWIDTH 20 0
BBX 16 17 1 4
BITMAP
1FF8
1FFC
1FFE
000F
0007
0007
0FFF
1FFF
3FFF
7FFF
F007
E007
F007
FFFF
7FFF
3FFF
1FFF
ENDCHAR
STARTCHAR 098
ENCODING 98
SWIDTH 1440 0
DWIDTH 20 0
BBX 17 24 0 4
BITMAP
F00000
F00000
F00000
F00000
F00000
F00000
F00000
FFFC00
FFFE00
FFFF00
F00780
F00380
F00380
F00380
F00380
F00380
F00380
F00380
F00380
F00780
FFFF80
FFFF00
FFFE00
FFFC00
ENDCHAR
STARTCHAR 099
ENCODING 99
SWIDTH 1440 0
DWIDTH 20 0
BBX 17 17 0 4
BITMAP
1FFC00
3FFC00
7FFC00
F80000
F00000
F00000
F00000
F00000
F00000
F00000
F00380
F00380
F80780
7FFF80
3FFF00
1FFE00
0FFC00
ENDCHAR
STARTCHAR 100
ENCODING 100
SWIDTH 1440 0
DWIDTH 20 0
BBX 17 24 0 4
BITMAP
000380
000380
000380
000380
000380
000380
000380
1FFF80
3FFF80
7FFF80
F80380
F00380
F00380
F00380
F00380
F00380
F00380
F00380
F00380
F80380
7FFF80
3FFF80
1FFF80
0FFF80
ENDCHAR
STARTCHAR 101
ENCODING 101
SWIDTH 1440 0
DWIDTH 20 0
BBX 17 17 0 4
BITMAP
1FFC00
3FFE00
7FFF00
F80780
F00380
F00380
F00780
FFFF00
FFFE00
FFFC00
F00000
F00000
F80000
7FFC00
3FFC00
1FFC00
0FFC00
ENDCHAR
STARTCHAR 102
ENCODING 102
SWIDTH 1440 0
DWIDTH 20 0
BBX 18 24 0 4
BITMAP
01FC00
03FE00
07FF00
0FFF80
0F07C0
0F03C0
0F03C0
0F0000
0F0000
0F0000
FFF000
FFF000
FFF000
FFF000
0F0000
0F0000
0F0000
0F0000
0F0000
0F0000
0F0000
0F0000
0F0000
0F0000
ENDCHAR
STARTCHAR 103
ENCODING 103
SWIDTH 1440 0
DWIDTH 20 0
BBX 17 23 0 -2
BITMAP
1FFE00
3FFF00
7FFF80
F80780
F00380
F00380
F00380
F00380
F00380
F00380
F00380
F00380
F80380
7FFF80
3FFF80
1FFF80
0FFF80
000380
000380
000780
0FFF80
0FFF00
0FFE00
ENDCHAR
STARTCHAR 104
ENCODING 104
SWIDTH 1440 0
DWIDTH 20 0
BBX 17 24 0 4
BITMAP
F00000
F00000
F00000
F00000
F00000
F00000
F00000
FFFE00
FFFF00
FFFF80
F00780
F00380
F00380
F00380
F00380
F00380
F00380
F00380
F00380
F00380
F00380
F00380
F00380
F00380
ENDCHAR
STARTCHAR 105
ENCODING 105
SWIDTH 1440 0
DWIDTH 20 0
BBX 10 24 4 4
BITMAP
1E00
1E00
1E00
1E00
0000
0000
0000
FE00
FE00
FE00
1E00
1E00
1E00
1E00
1E00
1E00
1E00
1E00
1E00
1E00
FFC0
FFC0
FFC0
FFC0
ENDCHAR
STARTCHAR 106
ENCODING 106
SWIDTH 1440 0
DWIDTH 20 0
BBX 13 30 4 -2
BITMAP
0038
0038
0038
0038
0000
0000
0000
03F8
03F8
03F8
0038
0038
0038
0038
0038
0038
0038
0038
0038
0038
0038
0038
0038
0038
E038
E038
F078
FFF8
7FF0
3FE0
ENDCHAR
STARTCHAR 107
ENCODING 107
SWIDTH 1440 0
DWIDTH 20 0
BBX 17 24 0 4
BITMAP
F00000
F00000
F00000
F00000
F00000
F00000
F00000
F00780
F00F80
F01F80
F03F00
F07E00
F0FC00
F1F800
FFF000
FFE000
FFE000
F1F000
F0F800
F07C00
F03E00
F01F00
F00F80
F00780
ENDCHAR
STARTCHAR 108
ENCODING 108
SWIDTH 1440 0
DWIDTH 20 0
BBX 10 24 4 4
BITMAP
FC00
FC00
FC00
FC00
1C00
1C00
1C00
1C00
1C00
1C00
1C00
1C00
1C00
1C00
1C00
1C00
1C00
1C00
1C00
1C00
FFC0
FFC0
FFC0
FFC0
ENDCHAR
STARTCHAR 109
ENCODING 109
SWIDTH 1440 0
DWIDTH 20 0
BBX 17 17 0 4
BITMAP
FE3C00
FF7E00
FFFF00
F3E780
F1C380
F1C380
F1C380
F1C380
F1C380
F1C380
F1C380
F1C380
F1C380
F1C380
F1C380
F1C380
F1C380
ENDCHAR
STARTCHAR 110
ENCODING 110
SWIDTH 1440 0
DWIDTH 20 0
BBX 17 17 0 4
BITMAP
F1FC00
F3FE00
F7FF00
FF8780
FF0380
FE0380
FC0380
F80380
F00380
F00380
F00380
F00380
F00380
F00380
F00380
F00380
F00380
ENDCHAR
STARTCHAR 111
ENCODING 111
SWIDTH 1440 0
DWIDTH 20 0
BBX 18 18 0 4
BITMAP
0FFC00
1FFE00
3FFF00
7FFF80
F807C0
F003C0
F003C0
F003C0
F003C0
F003C0
F003C0
F003C0
F003C0
F807C0
7FFF80
3FFF00
1FFE00
0FFC00
ENDCHAR
STARTCHAR 112
ENCODING 112
SWIDTH 1440 0
DWIDTH 20 0
BBX 17 23 0 -2
BITMAP
FFFE00
FFFF00
FFFF80
F00780
F00380
F00380
F00380
F00380
F00380
F00380
F00380
F00380
F00780
FFFF80
FFFF00
FFFE00
FFFC00
F00000
F00000
F00000
F00000
F00000
F00000
ENDCHAR
STARTCHAR 113
ENCODING 113
SWIDTH 1440 0
DWIDTH 20 0
BBX 17 23 0 -2
BITMAP
1FFF80
3FFF80
7FFF80
F80380
F00380
F00380
F00380
F00380
F00380
F00380
F00380
F00380
F80380
7FFF80
3FFF80
1FFF80
0FFF80
000380
000380
000380
000380
000380
000380
ENDCHAR
STARTCHAR 114
ENCODING 114
SWIDTH 1440 0
DWIDTH 20 0
BBX 17 17 0 4
BITMAP
F1FC00
F3FE00
F7FF00
FFC780
FF8380
FF0380
FE0380
FC0000
F80000
F00000
F00000
F00000
F00000
F00000
F00000
F00000
F00000
ENDCHAR
STARTCHAR 115
ENCODING 115
SWIDTH 1440 0
DWIDTH 20 0
BBX 17 17 0 4
BITMAP
1FFF80
3FFF80
7FFF80
F80000
F00000
F00000
F80000
7FFE00
3FFF00
1FFF80
000780
000380
000780
FFFF80
FFFF00
FFFE00
FFFC00
ENDCHAR
STARTCHAR 116
ENCODING 116
SWIDTH 1440 0
DWIDTH 20 0
BBX 17 24 0 4
BITMAP
01C000
01C000
01C000
01C000
01C000
01C000
01C000
FFFF80
FFFF80
FFFF80
01C000
01C000
01C000
01C000
01C000
01C000
01C000
01C000
01C000
01E000
01FF80
00FF80
007F80
003F80
ENDCHAR
STARTCHAR 117
ENCODING 117
SWIDTH 1440 0
DWIDTH 20 0
BBX 17 17 0 4
BITMAP
F00380
F00380
F00380
F00380
F00380
F00380
F00380
F00380
F00780
F00F80
F01F80
F03F80
F87F80
7FFB80
3FF380
1FE380
0FC380
ENDCHAR
STARTCHAR 118
ENCODING 118
SWIDTH 1440 0
DWIDTH 20 0
BBX 17 17 0 4
BITMAP
F00780
F00780
F00780
F00780
F00780
F00780
F00780
F00780
F00780
F80F80
7C1F00
3E3E00
1F7C00
0FF800
07F000
03E000
01C000
ENDCHAR
STARTCHAR 119
ENCODING 119
SWIDTH 1440 0
DWIDTH 20 0
BBX 17 17 0 4
BITMAP
F00780
F00780
F00780
F00780
F00780
F00780
F00780
F1C780
F1C780
F1C780
F1C780
F1C780
FBEF80
7FFF00
3F7E00
1F7C00
0E3800
ENDCHAR
STARTCHAR 120
ENCODING 120
SWIDTH 1440 0
DWIDTH 20 0
BBX 17 17 0 4
BITMAP
E00380
F00780
F80F80
7C1F00
3E3E00
1F7C00
0FF800
07F000
03E000
07F000
0FF800
1F7C00
3E3E00
7C1F00
F80F80
F00780
E00380
ENDCHAR
STARTCHAR 121
ENCODING 121
SWIDTH 1440 0
DWIDTH 20 0
BBX 17 23 0 -2
BITMAP
F00780
F00780
F00780
F00780
F00780
F00780
F00780
F00780
F00780
F80F80
7C1F00
3E3E00
1F7C00
0FF800
07F000
03E000
07C000
0F8000
1F0000
3E0000
FC0000
F80000
F00000
ENDCHAR
STARTCHAR 122
ENCODING 122
SWIDTH 1440 0
DWIDTH 20 0
BBX 17 17 0 4
BITMAP
FFFF80
FFFF80
FFFF80
001F00
003E00
007C00
00F800
01F000
03E000
07C000
0F8000
1F0000
3E0000
FFFF80
FFFF80
FFFF80
FFFF80
ENDCHAR
STARTCHAR 123
ENCODING 123
SWIDTH 1440 0
DWIDTH 20 0
BBX 10 30 4 1
BITMAP
03C0
07C0
0FC0
1E00
1C00
1C00
1C00
1C00
1C00
1C00
1C00
3C00
7800
E000
E000
E000
E000
7800
3C00
1C00
1C00
1C00
1C00
1C00
1C00
1C00
1E00
0FC0
07C0
03C0
ENDCHAR
STARTCHAR 124
ENCODING 124
SWIDTH 1440 0
DWIDTH 20 0
BBX 3 30 7 1
BITMAP
E0
E0
E0
E0
E0
E0
E0
E0
E0
E0
E0
E0
E0
E0
E0
E0
E0
E0
E0
E0
E0
E0
E0
E0
E0
E0
E0
E0
E0
E0
ENDCHAR
STARTCHAR 125
ENCODING 125
SWIDTH 1440 0
DWIDTH 20 0
BBX 9 30 4 1
BITMAP
E000
F000
F800
3C00
1C00
1C00
1C00
1C00
1C00
1C00
1C00
1E00
0F00
0380
0380
0380
0380
0F00
1E00
1C00
1C00
1C00
1C00
1C00
1C00
1C00
3C00
F800
F000
E000
ENDCHAR
STARTCHAR 126
ENCODING 126
SWIDTH 1440 0
DWIDTH 20 0
BBX 18 10 0 11
BITMAP
0E03C0
1F03C0
3F83C0
7BC3C0
F1C3C0
F1C3C0
F1E7C0
F0FF80
F07F00
F03E00
ENDCHAR
STARTCHAR 127
ENCODING 127
SWIDTH 1080 0
DWIDTH 15 0
BBX 0 0 0 0
BITMAP
ENDCHAR
STARTCHAR 128
ENCODING 128
SWIDTH 1080 0
DWIDTH 15 0
BBX 0 0 0 0
BITMAP
ENDCHAR
STARTCHAR 129
ENCODING 129
SWIDTH 1080 0
DWIDTH 15 0
BBX 0 0 0 0
BITMAP
ENDCHAR
STARTCHAR 130
ENCODING 130
SWIDTH 1080 0
DWIDTH 15 0
BBX 0 0 0 0
BITMAP
ENDCHAR
STARTCHAR 131
ENCODING 131
SWIDTH 1080 0
DWIDTH 15 0
BBX 0 0 0 0
BITMAP
ENDCHAR
STARTCHAR 132
ENCODING 132
SWIDTH 1080 0
DWIDTH 15 0
BBX 0 0 0 0
BITMAP
ENDCHAR
STARTCHAR 133
ENCODING 133
SWIDTH 1080 0
DWIDTH 15 0
BBX 0 0 0 0
BITMAP
ENDCHAR
STARTCHAR 134
ENCODING 134
SWIDTH 1080 0
DWIDTH 15 0
BBX 0 0 0 0
BITMAP
ENDCHAR
STARTCHAR 135
ENCODING 135
SWIDTH 1080 0
DWIDTH 15 0
BBX 0 0 0 0
BITMAP
ENDCHAR
STARTCHAR 136
ENCODING 136
SWIDTH 1080 0
DWIDTH 15 0
BBX 0 0 0 0
BITMAP
ENDCHAR
STARTCHAR 137
ENCODING 137
SWIDTH 1080 0
DWIDTH 15 0
BBX 0 0 0 0
BITMAP
ENDCHAR
STARTCHAR 138
ENCODING 138
SWIDTH 1080 0
DWIDTH 15 0
BBX 0 0 0 0
BITMAP
ENDCHAR
STARTCHAR 139
ENCODING 139
SWIDTH 1080 0
DWIDTH 15 0
BBX 0 0 0 0
BITMAP
ENDCHAR
STARTCHAR 140
ENCODING 140
SWIDTH 1080 0
DWIDTH 15 0
BBX 0 0 0 0
BITMAP
ENDCHAR
STARTCHAR 141
ENCODING 141
SWIDTH 1080 0
DWIDTH 15 0
BBX 0 0 0 0
BITMAP
ENDCHAR
STARTCHAR 142
ENCODING 142
SWIDTH 1080 0
DWIDTH 15 0
BBX 0 0 0 0
BITMAP
ENDCHAR
STARTCHAR 143
ENCODING 143
SWIDTH 1080 0
DWIDTH 15 0
BBX 0 0 0 0
BITMAP
ENDCHAR
STARTCHAR 144
ENCODING 144
SWIDTH 1080 0
DWIDTH 15 0
BBX 0 0 0 0
BITMAP
ENDCHAR
STARTCHAR 145
ENCODING 145
SWIDTH 1080 0
DWIDTH 15 0
BBX 0 0 0 0
BITMAP
ENDCHAR
STARTCHAR 146
ENCODING 146
SWIDTH 1080 0
DWIDTH 15 0
BBX 0 0 0 0
BITMAP
ENDCHAR
STARTCHAR 147
ENCODING 147
SWIDTH 1080 0
DWIDTH 15 0
BBX 0 0 0 0
BITMAP
ENDCHAR
STARTCHAR 148
ENCODING 148
SWIDTH 1080 0
DWIDTH 15 0
BBX 0 0 0 0
BITMAP
ENDCHAR
STARTCHAR 149
ENCODING 149
SWIDTH 1080 0
DWIDTH 15 0
BBX 0 0 0 0
BITMAP
ENDCHAR
STARTCHAR 150
ENCODING 150
SWIDTH 1080 0
DWIDTH 15 0
BBX 0 0 0 0
BITMAP
ENDCHAR
STARTCHAR 151
ENCODING 151
SWIDTH 1080 0
DWIDTH 15 0
BBX 0 0 0 0
BITMAP
ENDCHAR
STARTCHAR 152
ENCODING 152
SWIDTH 1080 0
DWIDTH 15 0
BBX 0 0 0 0
BITMAP
ENDCHAR
STARTCHAR 153
ENCODING 153
SWIDTH 1080 0
DWIDTH 15 0
BBX 0 0 0 0
BITMAP
ENDCHAR
STARTCHAR 154
ENCODING 154
SWIDTH 1080 0
DWIDTH 15 0
BBX 0 0 0 0
BITMAP
ENDCHAR
STARTCHAR 155
ENCODING 155
SWIDTH 1080 0
DWIDTH 15 0
BBX 0 0 0 0
BITMAP
ENDCHAR
STARTCHAR 156
ENCODING 156
SWIDTH 1080 0
DWIDTH 15 0
BBX 0 0 0 0
BITMAP
ENDCHAR
STARTCHAR 157
ENCODING 157
SWIDTH 1080 0
DWIDTH 15 0
BBX 0 0 0 0
BITMAP
ENDCHAR
STARTCHAR 158
ENCODING 158
SWIDTH 1080 0
DWIDTH 15 0
BBX 0 0 0 0
BITMAP
ENDCHAR
STARTCHAR 159
ENCODING 159
SWIDTH 1080 0
DWIDTH 15 0
BBX 0 0 0 0
BITMAP
ENDCHAR
STARTCHAR 160
ENCODING 160
SWIDTH 1440 0
DWIDTH 20 0
BBX 0 0 0 0
BITMAP
ENDCHAR
STARTCHAR 161
ENCODING 161
SWIDTH 1440 0
DWIDTH 20 0
BBX 3 24 7 4
BITMAP
E0
E0
E0
E0
00
00
00
E0
E0
E0
E0
E0
E0
E0
E0
E0
E0
E0
E0
E0
E0
E0
E0
E0
ENDCHAR
STARTCHAR 162
ENCODING 162
SWIDTH 1440 0
DWIDTH 20 0
BBX 17 23 0 1
BITMAP
01C000
01C000
01C000
0FFC00
0FFC00
0FFC00
F1C380
F1C380
F1C380
F1C380
F1C000
F1C000
F1C000
F1C380
F1C380
F1C380
0FFC00
0FFC00
0FFC00
0FFC00
01C000
01C000
01C000
ENDCHAR
STARTCHAR 163
ENCODING 163
SWIDTH 1440 0
DWIDTH 20 0
BBX 17 24 0 4
BITMAP
01FC00
01FC00
01FC00
01FC00
0E0380
0E0380
0E0380
0E0000
0E0000
0E0000
FFC000
FFC000
FFC000
FFC000
0E0000
0E0000
0E0000
0E0380
0E0380
0E0380
F1FC00
F1FC00
F1FC00
F1FC00
ENDCHAR
STARTCHAR 164
ENCODING 164
SWIDTH 1440 0
DWIDTH 20 0
BBX 17 17 0 4
BITMAP
F1C380
F1C380
F1C380
0E3C00
0E3C00
0E3C00
0E3C00
F00380
F00380
F00380
0E3C00
0E3C00
0E3C00
F1C380
F1C380
F1C380
F1C380
ENDCHAR
STARTCHAR 165
ENCODING 165
SWIDTH 1440 0
DWIDTH 20 0
BBX 17 24 0 4
BITMAP
F00380
F00380
F00380
F00380
0E3C00
0E3C00
0E3C00
FFFF80
FFFF80
FFFF80
01C000
01C000
01C000
01C000
FFFF80
FFFF80
FFFF80
01C000
01C000
01C000
01C000
01C000
01C000
01C000
ENDCHAR
STARTCHAR 166
ENCODING 166
SWIDTH 1440 0
DWIDTH 20 0
BBX 3 24 7 4
BITMAP
E0
E0
E0
E0
E0
E0
E0
E0
E0
E0
00
00
00
00
E0
E0
E0
E0
E0
E0
E0
E0
E0
E0
ENDCHAR
STARTCHAR 167
ENCODING 167
SWIDTH 1440 0
DWIDTH 20 0
BBX 13 27 4 4
BITMAP
1FF8
1FF8
1FF8
E000
E000
E000
E000
1FC0
1FC0
1FC0
E038
E038
E038
E038
E038
E038
E038
1FC0
1FC0
1FC0
0038
0038
0038
FFC0
FFC0
FFC0
FFC0
ENDCHAR
STARTCHAR 168
ENCODING 168
SWIDTH 1440 0
DWIDTH 20 0
BBX 10 3 4 28
BITMAP
E3C0
E3C0
E3C0
ENDCHAR
STARTCHAR 169
ENCODING 169
SWIDTH 1440 0
DWIDTH 20 0
BBX 20 24 0 4
BITMAP
0FFF80
0FFF80
0FFF80
0FFF80
F00070
F00070
F00070
F1FC70
F1FC70
F1FC70
F1C070
F1C070
F1C070
F1C070
F1FC70
F1FC70
F1FC70
F00070
F00070
F00070
0FFF80
0FFF80
0FFF80
0FFF80
ENDCHAR
STARTCHAR 170
ENCODING 170
SWIDTH 1440 0
DWIDTH 20 0
BBX 10 16 4 18
BITMAP
1FC0
1FC0
1FC0
E3C0
E3C0
E3C0
1FC0
1FC0
1FC0
1FC0
0000
0000
0000
FFC0
FFC0
FFC0
ENDCHAR
STARTCHAR 171
ENCODING 171
SWIDTH 1440 0
DWIDTH 20 0
BBX 17 17 0 4
BITMAP
01C380
01C380
01C380
0E3C00
0E3C00
0E3C00
0E3C00
F1C000
F1C000
F1C000
0E3C00
0E3C00
0E3C00
01C380
01C380
01C380
01C380
ENDCHAR
STARTCHAR 172
ENCODING 172
SWIDTH 1440 0
DWIDTH 20 0
BBX 17 10 0 8
BITMAP
FFFF80
FFFF80
FFFF80
FFFF80
000380
000380
000380
000380
000380
000380
ENDCHAR
STARTCHAR 173
ENCODING 173
SWIDTH 1440 0
DWIDTH 20 0
BBX 10 4 4 14
BITMAP
FFC0
FFC0
FFC0
FFC0
ENDCHAR
STARTCHAR 174
ENCODING 174
SWIDTH 1440 0
DWIDTH 20 0
BBX 20 24 0 4
BITMAP
0FFF80
0FFF80
0FFF80
0FFF80
F00070
F00070
F00070
F1FC70
F1FC70
F1FC70
F1C070
F1C070
F1C070
F1C070
F1C070
F1C070
F1C070
F00070
F00070
F00070
0FFF80
0FFF80
0FFF80
0FFF80
ENDCHAR
STARTCHAR 175
ENCODING 175
SWIDTH 1440 0
DWIDTH 20 0
BBX 17 3 0 28
BITMAP
FFFF80
FFFF80
FFFF80
ENDCHAR
STARTCHAR 176
ENCODING 176
SWIDTH 1440 0
DWIDTH 20 0
BBX 13 13 4 21
BITMAP
1FC0
1FC0
1FC0
E038
E038
E038
E038
E038
E038
E038
1FC0
1FC0
1FC0
ENDCHAR
STARTCHAR 177
ENCODING 177
SWIDTH 1440 0
DWIDTH 20 0
BBX 17 24 0 4
BITMAP
01C000
01C000
01C000
01C000
01C000
01C000
01C000
FFFF80
FFFF80
FFFF80
01C000
01C000
01C000
01C000
01C000
01C000
01C000
000000
000000
000000
FFFF80
FFFF80
FFFF80
FFFF80
ENDCHAR
STARTCHAR 178
ENCODING 178
SWIDTH 1440 0
DWIDTH 20 0
BBX 10 16 4 18
BITMAP
1C00
1C00
1C00
E3C0
E3C0
E3C0
03C0
03C0
03C0
03C0
1C00
1C00
1C00
FFC0
FFC0
FFC0
ENDCHAR
STARTCHAR 179
ENCODING 179
SWIDTH 1440 0
DWIDTH 20 0
BBX 10 16 4 18
BITMAP
FC00
FC00
FC00
03C0
03C0
03C0
1C00
1C00
1C00
1C00
03C0
03C0
03C0
FC00
FC00
FC00
ENDCHAR
STARTCHAR 180
ENCODING 180
SWIDTH 1440 0
DWIDTH 20 0
BBX 10 10 4 21
BITMAP
03C0
03C0
03C0
1C00
1C00
1C00
1C00
E000
E000
E000
ENDCHAR
STARTCHAR 181
ENCODING 181
SWIDTH 1440 0
DWIDTH 20 0
BBX 17 23 0 -2
BITMAP
F00380
F00380
F00380
F00380
F00380
F00380
F00380
F00380
F00380
F00380
F03F80
F03F80
F03F80
FFC380
FFC380
FFC380
FFC380
F00000
F00000
F00000
F00000
F00000
F00000
ENDCHAR
STARTCHAR 182
ENCODING 182
SWIDTH 1440 0
DWIDTH 20 0
BBX 17 27 0 4
BITMAP
0FFF80
0FFF80
0FFF80
FFC380
FFC380
FFC380
FFC380
FFC380
FFC380
FFC380
FFC380
FFC380
FFC380
0FC380
0FC380
0FC380
0FC380
01C380
01C380
01C380
01C380
01C380
01C380
01C380
01C380
01C380
01C380
ENDCHAR
STARTCHAR 183
ENCODING 183
SWIDTH 1440 0
DWIDTH 20 0
BBX 7 7 7 14
BITMAP
FE
FE
FE
FE
FE
FE
FE
ENDCHAR
STARTCHAR 184
ENCODING 184
SWIDTH 1440 0
DWIDTH 20 0
BBX 10 6 4 -2
BITMAP
03C0
03C0
03C0
FC00
FC00
FC00
ENDCHAR
STARTCHAR 185
ENCODING 185
SWIDTH 1440 0
DWIDTH 20 0
BBX 10 16 4 18
BITMAP
1C00
1C00
1C00
FC00
FC00
FC00
1C00
1C00
1C00
1C00
1C00
1C00
1C00
FFC0
FFC0
FFC0
ENDCHAR
STARTCHAR 186
ENCODING 186
SWIDTH 1440 0
DWIDTH 20 0
BBX 10 17 4 21
BITMAP
1C00
1C00
1C00
1C00
E3C0
E3C0
E3C0
1C00
1C00
1C00
0000
0000
0000
0000
FFC0
FFC0
FFC0
ENDCHAR
STARTCHAR 187
ENCODING 187
SWIDTH 1440 0
DWIDTH 20 0
BBX 17 17 0 4
BITMAP
F1C000
F1C000
F1C000
0E3C00
0E3C00
0E3C00
0E3C00
01C380
01C380
01C380
0E3C00
0E3C00
0E3C00
F1C000
F1C000
F1C000
F1C000
ENDCHAR
STARTCHAR 188
ENCODING 188
SWIDTH 1440 0
DWIDTH 20 0
BBX 17 34 0 4
BITMAP
0E0000
0E0000
0E0000
0E0000
FE0000
FE0000
FE0000
0E0380
0E0380
0E0380
0E3C00
0E3C00
0E3C00
0E3C00
0FC000
0FC000
0FC000
0E3C00
0E3C00
0E3C00
F1FC00
F1FC00
F1FC00
F1FC00
0E3C00
0E3C00
0E3C00
0FFF80
0FFF80
0FFF80
003C00
003C00
003C00
003C00
ENDCHAR
STARTCHAR 189
ENCODING 189
SWIDTH 1440 0
DWIDTH 20 0
BBX 17 34 0 4
BITMAP
0E0000
0E0000
0E0000
0E0000
FE0000
FE0000
FE0000
0E0380
0E0380
0E0380
0E3C00
0E3C00
0E3C00
0E3C00
0FC000
0FC000
0FC000
0E3C00
0E3C00
0E3C00
F1C380
F1C380
F1C380
F1C380
000380
000380
000380
003C00
003C00
003C00
01FF80
01FF80
01FF80
01FF80
ENDCHAR
STARTCHAR 190
ENCODING 190
SWIDTH 1440 0
DWIDTH 20 0
BBX 17 34 0 4
BITMAP
FE0000
FE0000
FE0000
FE0000
01C000
01C000
01C000
0E0380
0E0380
0E0380
01FC00
01FC00
01FC00
01FC00
FFC000
FFC000
FFC000
0E3C00
0E3C00
0E3C00
F1FC00
F1FC00
F1FC00
F1FC00
0E3C00
0E3C00
0E3C00
0FFF80
0FFF80
0FFF80
003C00
003C00
003C00
003C00
ENDCHAR
STARTCHAR 191
ENCODING 191
SWIDTH 1440 0
DWIDTH 20 0
BBX 17 24 0 4
BITMAP
01C000
01C000
01C000
01C000
000000
000000
000000
01C000
01C000
01C000
01C000
01C000
01C000
01C000
0E0000
0E0000
0E0000
F00380
F00380
F00380
0FFC00
0FFC00
0FFC00
0FFC00
ENDCHAR
STARTCHAR 192
ENCODING 192
SWIDTH 1440 0
DWIDTH 20 0
BBX 17 34 0 4
BITMAP
0E0000
0E0000
0E0000
0E0000
01C000
01C000
01C000
000000
000000
000000
0FFC00
0FFC00
0FFC00
0FFC00
F00380
F00380
F00380
F00380
F00380
F00380
FFFF80
FFFF80
FFFF80
FFFF80
F00380
F00380
F00380
F00380
F00380
F00380
F00380
F00380
F00380
F00380
ENDCHAR
STARTCHAR 193
ENCODING 193
SWIDTH 1440 0
DWIDTH 20 0
BBX 17 34 0 4
BITMAP
003C00
003C00
003C00
003C00
01C000
01C000
01C000
000000
000000
000000
0FFC00
0FFC00
0FFC00
0FFC00
F00380
F00380
F00380
F00380
F00380
F00380
FFFF80
FFFF80
FFFF80
FFFF80
F00380
F00380
F00380
F00380
F00380
F00380
F00380
F00380
F00380
F00380
ENDCHAR
STARTCHAR 194
ENCODING 194
SWIDTH 1440 0
DWIDTH 20 0
BBX 17 34 0 4
BITMAP
01C000
01C000
01C000
01C000
0E3C00
0E3C00
0E3C00
000000
000000
000000
0FFC00
0FFC00
0FFC00
0FFC00
F00380
F00380
F00380
F00380
F00380
F00380
FFFF80
FFFF80
FFFF80
FFFF80
F00380
F00380
F00380
F00380
F00380
F00380
F00380
F00380
F00380
F00380
ENDCHAR
STARTCHAR 195
ENCODING 195
SWIDTH 1440 0
DWIDTH 20 0
BBX 17 34 0 4
BITMAP
0FC380
0FC380
0FC380
0FC380
F1FC00
F1FC00
F1FC00
000000
000000
000000
0FFC00
0FFC00
0FFC00
0FFC00
F00380
F00380
F00380
F00380
F00380
F00380
FFFF80
FFFF80
FFFF80
FFFF80
F00380
F00380
F00380
F00380
F00380
F00380
F00380
F00380
F00380
F00380
ENDCHAR
STARTCHAR 196
ENCODING 196
SWIDTH 1440 0
DWIDTH 20 0
BBX 17 30 0 4
BITMAP
0E3C00
0E3C00
0E3C00
000000
000000
000000
0FFC00
0FFC00
0FFC00
0FFC00
F00380
F00380
F00380
F00380
F00380
F00380
FFFF80
FFFF80
FFFF80
FFFF80
F00380
F00380
F00380
F00380
F00380
F00380
F00380
F00380
F00380
F00380
ENDCHAR
STARTCHAR 197
ENCODING 197
SWIDTH 1440 0
DWIDTH 20 0
BBX 17 34 0 4
BITMAP
01C000
01C000
01C000
01C000
0E3C00
0E3C00
0E3C00
01C000
01C000
01C000
0FFC00
0FFC00
0FFC00
0FFC00
F00380
F00380
F00380
F00380
F00380
F00380
FFFF80
FFFF80
FFFF80
FFFF80
F00380
F00380
F00380
F00380
F00380
F00380
F00380
F00380
F00380
F00380
ENDCHAR
STARTCHAR 198
ENCODING 198
SWIDTH 1440 0
DWIDTH 20 0
BBX 17 24 0 4
BITMAP
0FFF80
0FFF80
0FFF80
0FFF80
F1C000
F1C000
F1C000
F1C000
F1C000
F1C000
FFFC00
FFFC00
FFFC00
FFFC00
F1C000
F1C000
F1C000
F1C000
F1C000
F1C000
F1FF80
F1FF80
F1FF80
F1FF80
ENDCHAR
STARTCHAR 199
ENCODING 199
SWIDTH 1440 0
DWIDTH 20 0
BBX 17 30 0 -2
BITMAP
0FFC00
0FFC00
0FFC00
0FFC00
F00380
F00380
F00380
F00000
F00000
F00000
F00000
F00000
F00000
F00000
F00000
F00000
F00000
F00380
F00380
F00380
0FFC00
0FFC00
0FFC00
0FFC00
003C00
003C00
003C00
0FC000
0FC000
0FC000
ENDCHAR
STARTCHAR 200
ENCODING 200
SWIDTH 1440 0
DWIDTH 20 0
BBX 17 34 0 4
BITMAP
0E0000
0E0000
0E0000
0E0000
01C000
01C000
01C000
000000
000000
000000
FFFF80
FFFF80
FFFF80
FFFF80
F00000
F00000
F00000
F00000
F00000
F00000
FFFC00
FFFC00
FFFC00
FFFC00
F00000
F00000
F00000
F00000
F00000
F00000
FFFF80
FFFF80
FFFF80
FFFF80
ENDCHAR
STARTCHAR 201
ENCODING 201
SWIDTH 1440 0
DWIDTH 20 0
BBX 17 34 0 4
BITMAP
003C00
003C00
003C00
003C00
01C000
01C000
01C000
000000
000000
000000
FFFF80
FFFF80
FFFF80
FFFF80
F00000
F00000
F00000
F00000
F00000
F00000
FFFC00
FFFC00
FFFC00
FFFC00
F00000
F00000
F00000
F00000
F00000
F00000
FFFF80
FFFF80
FFFF80
FFFF80
ENDCHAR
STARTCHAR 202
ENCODING 202
SWIDTH 1440 0
DWIDTH 20 0
BBX 17 34 0 4
BITMAP
01C000
01C000
01C000
01C000
0E3C00
0E3C00
0E3C00
000000
000000
000000
FFFF80
FFFF80
FFFF80
FFFF80
F00000
F00000
F00000
F00000
F00000
F00000
FFFC00
FFFC00
FFFC00
FFFC00
F00000
F00000
F00000
F00000
F00000
F00000
FFFF80
FFFF80
FFFF80
FFFF80
ENDCHAR
STARTCHAR 203
ENCODING 203
SWIDTH 1440 0
DWIDTH 20 0
BBX 17 30 0 4
BITMAP
0E3C00
0E3C00
0E3C00
000000
000000
000000
FFFF80
FFFF80
FFFF80
FFFF80
F00000
F00000
F00000
F00000
F00000
F00000
FFFC00
FFFC00
FFFC00
FFFC00
F00000
F00000
F00000
F00000
F00000
F00000
FFFF80
FFFF80
FFFF80
FFFF80
ENDCHAR
STARTCHAR 204
ENCODING 204
SWIDTH 1440 0
DWIDTH 20 0
BBX 10 34 4 4
BITMAP
E000
E000
E000
E000
1C00
1C00
1C00
0000
0000
0000
FFC0
FFC0
FFC0
FFC0
1C00
1C00
1C00
1C00
1C00
1C00
1C00
1C00
1C00
1C00
1C00
1C00
1C00
1C00
1C00
1C00
FFC0
FFC0
FFC0
FFC0
ENDCHAR
STARTCHAR 205
ENCODING 205
SWIDTH 1440 0
DWIDTH 20 0
BBX 10 34 4 4
BITMAP
03C0
03C0
03C0
03C0
1C00
1C00
1C00
0000
0000
0000
FFC0
FFC0
FFC0
FFC0
1C00
1C00
1C00
1C00
1C00
1C00
1C00
1C00
1C00
1C00
1C00
1C00
1C00
1C00
1C00
1C00
FFC0
FFC0
FFC0
FFC0
ENDCHAR
STARTCHAR 206
ENCODING 206
SWIDTH 1440 0
DWIDTH 20 0
BBX 10 34 4 4
BITMAP
1C00
1C00
1C00
1C00
E3C0
E3C0
E3C0
0000
0000
0000
FFC0
FFC0
FFC0
FFC0
1C00
1C00
1C00
1C00
1C00
1C00
1C00
1C00
1C00
1C00
1C00
1C00
1C00
1C00
1C00
1C00
FFC0
FFC0
FFC0
FFC0
ENDCHAR
STARTCHAR 207
ENCODING 207
SWIDTH 1440 0
DWIDTH 20 0
BBX 10 30 4 4
BITMAP
E3C0
E3C0
E3C0
0000
0000
0000
FFC0
FFC0
FFC0
FFC0
1C00
1C00
1C00
1C00
1C00
1C00
1C00
1C00
1C00
1C00
1C00
1C00
1C00
1C00
1C00
1C00
FFC0
FFC0
FFC0
FFC0
ENDCHAR
STARTCHAR 208
ENCODING 208
SWIDTH 1440 0
DWIDTH 20 0
BBX 17 24 0 4
BITMAP
0FFC00
0FFC00
0FFC00
0FFC00
0E0380
0E0380
0E0380
0E0380
0E0380
0E0380
FFC380
FFC380
FFC380
FFC380
0E0380
0E0380
0E0380
0E0380
0E0380
0E0380
0FFC00
0FFC00
0FFC00
0FFC00
ENDCHAR
STARTCHAR 209
ENCODING 209
SWIDTH 1440 0
DWIDTH 20 0
BBX 17 34 0 4
BITMAP
0FC380
0FC380
0FC380
0FC380
F1FC00
F1FC00
F1FC00
000000
000000
000000
F00380
F00380
F00380
F00380
F00380
F00380
F00380
FE0380
FE0380
FE0380
F1C380
F1C380
F1C380
F1C380
F03F80
F03F80
F03F80
F00380
F00380
F00380
F00380
F00380
F00380
F00380
ENDCHAR
STARTCHAR 210
ENCODING 210
SWIDTH 1440 0
DWIDTH 20 0
BBX 17 34 0 4
BITMAP
0E0000
0E0000
0E0000
0E0000
01C000
01C000
01C000
000000
000000
000000
0FFC00
0FFC00
0FFC00
0FFC00
F00380
F00380
F00380
F00380
F00380
F00380
F00380
F00380
F00380
F00380
F00380
F00380
F00380
F00380
F00380
F00380
0FFC00
0FFC00
0FFC00
0FFC00
ENDCHAR
STARTCHAR 211
ENCODING 211
SWIDTH 1440 0
DWIDTH 20 0
BBX 17 34 0 4
BITMAP
003C00
003C00
003C00
003C00
01C000
01C000
01C000
000000
000000
000000
0FFC00
0FFC00
0FFC00
0FFC00
F00380
F00380
F00380
F00380
F00380
F00380
F00380
F00380
F00380
F00380
F00380
F00380
F00380
F00380
F00380
F00380
0FFC00
0FFC00
0FFC00
0FFC00
ENDCHAR
STARTCHAR 212
ENCODING 212
SWIDTH 1440 0
DWIDTH 20 0
BBX 17 34 0 4
BITMAP
01C000
01C000
01C000
01C000
0E3C00
0E3C00
0E3C00
000000
000000
000000
0FFC00
0FFC00
0FFC00
0FFC00
F00380
F00380
F00380
F00380
F00380
F00380
F00380
F00380
F00380
F00380
F00380
F00380
F00380
F00380
F00380
F00380
0FFC00
0FFC00
0FFC00
0FFC00
ENDCHAR
STARTCHAR 213
ENCODING 213
SWIDTH 1440 0
DWIDTH 20 0
BBX 17 34 0 4
BITMAP
0FC380
0FC380
0FC380
0FC380
F1FC00
F1FC00
F1FC00
000000
000000
000000
0FFC00
0FFC00
0FFC00
0FFC00
F00380
F00380
F00380
F00380
F00380
F00380
F00380
F00380
F00380
F00380
F00380
F00380
F00380
F00380
F00380
F00380
0FFC00
0FFC00
0FFC00
0FFC00
ENDCHAR
STARTCHAR 214
ENCODING 214
SWIDTH 1440 0
DWIDTH 20 0
BBX 17 30 0 4
BITMAP
0E3C00
0E3C00
0E3C00
000000
000000
000000
0FFC00
0FFC00
0FFC00
0FFC00
F00380
F00380
F00380
F00380
F00380
F00380
F00380
F00380
F00380
F00380
F00380
F00380
F00380
F00380
F00380
F00380
0FFC00
0FFC00
0FFC00
0FFC00
ENDCHAR
STARTCHAR 215
ENCODING 215
SWIDTH 1440 0
DWIDTH 20 0
BBX 17 16 0 8
BITMAP
F00380
F00380
F00380
0E3C00
0E3C00
0E3C00
01C000
01C000
01C000
01C000
0E3C00
0E3C00
0E3C00
F00380
F00380
F00380
ENDCHAR
STARTCHAR 216
ENCODING 216
SWIDTH 1440 0
DWIDTH 20 0
BBX 17 30 0 1
BITMAP
000380
000380
000380
0FFC00
0FFC00
0FFC00
0FFC00
F03F80
F03F80
F03F80
F1C380
F1C380
F1C380
F1C380
F1C380
F1C380
F1C380
F1C380
F1C380
F1C380
FE0380
FE0380
FE0380
0FFC00
0FFC00
0FFC00
0FFC00
F00000
F00000
F00000
ENDCHAR
STARTCHAR 217
ENCODING 217
SWIDTH 1440 0
DWIDTH 20 0
BBX 17 34 0 4
BITMAP
0E0000
0E0000
0E0000
0E0000
01C000
01C000
01C000
000000
000000
000000
F00380
F00380
F00380
F00380
F00380
F00380
F00380
F00380
F00380
F00380
F00380
F00380
F00380
F00380
F00380
F00380
F00380
F00380
F00380
F00380
0FFC00
0FFC00
0FFC00
0FFC00
ENDCHAR
STARTCHAR 218
ENCODING 218
SWIDTH 1440 0
DWIDTH 20 0
BBX 17 34 0 4
BITMAP
003C00
003C00
003C00
003C00
01C000
01C000
01C000
000000
000000
000000
F00380
F00380
F00380
F00380
F00380
F00380
F00380
F00380
F00380
F00380
F00380
F00380
F00380
F00380
F00380
F00380
F00380
F00380
F00380
F00380
0FFC00
0FFC00
0FFC00
0FFC00
ENDCHAR
STARTCHAR 219
ENCODING 219
SWIDTH 1440 0
DWIDTH 20 0
BBX 17 34 0 4
BITMAP
01C000
01C000
01C000
01C000
0E3C00
0E3C00
0E3C00
000000
000000
000000
F00380
F00380
F00380
F00380
F00380
F00380
F00380
F00380
F00380
F00380
F00380
F00380
F00380
F00380
F00380
F00380
F00380
F00380
F00380
F00380
0FFC00
0FFC00
0FFC00
0FFC00
ENDCHAR
STARTCHAR 220
ENCODING 220
SWIDTH 1440 0
DWIDTH 20 0
BBX 17 30 0 4
BITMAP
0E3C00
0E3C00
0E3C00
000000
000000
000000
F00380
F00380
F00380
F00380
F00380
F00380
F00380
F00380
F00380
F00380
F00380
F00380
F00380
F00380
F00380
F00380
F00380
F00380
F00380
F00380
0FFC00
0FFC00
0FFC00
0FFC00
ENDCHAR
STARTCHAR 221
ENCODING 221
SWIDTH 1440 0
DWIDTH 20 0
BBX 17 34 0 4
BITMAP
003C00
003C00
003C00
003C00
01C000
01C000
01C000
000000
000000
000000
F00380
F00380
F00380
F00380
F00380
F00380
F00380
0E3C00
0E3C00
0E3C00
01C000
01C000
01C000
01C000
01C000
01C000
01C000
01C000
01C000
01C000
01C000
01C000
01C000
01C000
ENDCHAR
STARTCHAR 222
ENCODING 222
SWIDTH 1440 0
DWIDTH 20 0
BBX 13 24 4 4
BITMAP
E000
E000
E000
E000
FFC0
FFC0
FFC0
E038
E038
E038
E038
E038
E038
E038
E038
E038
E038
FFC0
FFC0
FFC0
E000
E000
E000
E000
ENDCHAR
STARTCHAR 223
ENCODING 223
SWIDTH 1440 0
DWIDTH 20 0
BBX 17 24 0 4
BITMAP
0FFC00
0FFC00
0FFC00
0FFC00
F00380
F00380
F00380
F03C00
F03C00
F03C00
F1C000
F1C000
F1C000
F1C000
F03C00
F03C00
F03C00
F00380
F00380
F00380
F1FC00
F1FC00
F1FC00
F1FC00
ENDCHAR
STARTCHAR 224
ENCODING 224
SWIDTH 1440 0
DWIDTH 20 0
BBX 17 27 0 4
BITMAP
0E0000
0E0000
0E0000
01C000
01C000
01C000
01C000
000000
000000
000000
0FFC00
0FFC00
0FFC00
000380
000380
000380
000380
0FFF80
0FFF80
0FFF80
F00380
F00380
F00380
0FFF80
0FFF80
0FFF80
0FFF80
ENDCHAR
STARTCHAR 225
ENCODING 225
SWIDTH 1440 0
DWIDTH 20 0
BBX 17 27 0 4
BITMAP
003C00
003C00
003C00
01C000
01C000
01C000
01C000
000000
000000
000000
0FFC00
0FFC00
0FFC00
000380
000380
000380
000380
0FFF80
0FFF80
0FFF80
F00380
F00380
F00380
0FFF80
0FFF80
0FFF80
0FFF80
ENDCHAR
STARTCHAR 226
ENCODING 226
SWIDTH 1440 0
DWIDTH 20 0
BBX 17 27 0 4
BITMAP
01C000
01C000
01C000
0E3C00
0E3C00
0E3C00
0E3C00
000000
000000
000000
0FFC00
0FFC00
0FFC00
000380
000380
000380
000380
0FFF80
0FFF80
0FFF80
F00380
F00380
F00380
0FFF80
0FFF80
0FFF80
0FFF80
ENDCHAR
STARTCHAR 227
ENCODING 227
SWIDTH 1440 0
DWIDTH 20 0
BBX 17 27 0 4
BITMAP
0FC380
0FC380
0FC380
F1FC00
F1FC00
F1FC00
F1FC00
000000
000000
000000
0FFC00
0FFC00
0FFC00
000380
000380
000380
000380
0FFF80
0FFF80
0FFF80
F00380
F00380
F00380
0FFF80
0FFF80
0FFF80
0FFF80
ENDCHAR
STARTCHAR 228
ENCODING 228
SWIDTH 1440 0
DWIDTH 20 0
BBX 17 24 0 4
BITMAP
0E3C00
0E3C00
0E3C00
0E3C00
000000
000000
000000
0FFC00
0FFC00
0FFC00
000380
000380
000380
000380
0FFF80
0FFF80
0FFF80
F00380
F00380
F00380
0FFF80
0FFF80
0FFF80
0FFF80
ENDCHAR
STARTCHAR 229
ENCODING 229
SWIDTH 1440 0
DWIDTH 20 0
BBX 17 27 0 4
BITMAP
01C000
01C000
01C000
0E3C00
0E3C00
0E3C00
0E3C00
01C000
01C000
01C000
0FFC00
0FFC00
0FFC00
000380
000380
000380
000380
0FFF80
0FFF80
0FFF80
F00380
F00380
F00380
0FFF80
0FFF80
0FFF80
0FFF80
ENDCHAR
STARTCHAR 230
ENCODING 230
SWIDTH 1440 0
DWIDTH 20 0
BBX 17 17 0 4
BITMAP
0FFC00
0FFC00
0FFC00
01C380
01C380
01C380
01C380
0FFC00
0FFC00
0FFC00
F1C000
F1C000
F1C000
0FFF80
0FFF80
0FFF80
0FFF80
ENDCHAR
STARTCHAR 231
ENCODING 231
SWIDTH 1440 0
DWIDTH 20 0
BBX 17 23 0 -2
BITMAP
0FFC00
0FFC00
0FFC00
F00380
F00380
F00380
F00380
F00000
F00000
F00000
F00380
F00380
F00380
0FFC00
0FFC00
0FFC00
0FFC00
003C00
003C00
003C00
0FC000
0FC000
0FC000
ENDCHAR
STARTCHAR 232
ENCODING 232
SWIDTH 1440 0
DWIDTH 20 0
BBX 17 27 0 4
BITMAP
0E0000
0E0000
0E0000
01C000
01C000
01C000
01C000
000000
000000
000000
0FFC00
0FFC00
0FFC00
F00380
F00380
F00380
F00380
FFFC00
FFFC00
FFFC00
F00000
F00000
F00000
0FFC00
0FFC00
0FFC00
0FFC00
ENDCHAR
STARTCHAR 233
ENCODING 233
SWIDTH 1440 0
DWIDTH 20 0
BBX 17 27 0 4
BITMAP
003C00
003C00
003C00
01C000
01C000
01C000
01C000
000000
000000
000000
0FFC00
0FFC00
0FFC00
F00380
F00380
F00380
F00380
FFFC00
FFFC00
FFFC00
F00000
F00000
F00000
0FFC00
0FFC00
0FFC00
0FFC00
ENDCHAR
STARTCHAR 234
ENCODING 234
SWIDTH 1440 0
DWIDTH 20 0
BBX 17 27 0 4
BITMAP
01C000
01C000
01C000
0E3C00
0E3C00
0E3C00
0E3C00
000000
000000
000000
0FFC00
0FFC00
0FFC00
F00380
F00380
F00380
F00380
FFFC00
FFFC00
FFFC00
F00000
F00000
F00000
0FFC00
0FFC00
0FFC00
0FFC00
ENDCHAR
STARTCHAR 235
ENCODING 235
SWIDTH 1440 0
DWIDTH 20 0
BBX 17 24 0 4
BITMAP
0E3C00
0E3C00
0E3C00
0E3C00
000000
000000
000000
0FFC00
0FFC00
0FFC00
F00380
F00380
F00380
F00380
FFFC00
FFFC00
FFFC00
F00000
F00000
F00000
0FFC00
0FFC00
0FFC00
0FFC00
ENDCHAR
STARTCHAR 236
ENCODING 236
SWIDTH 1440 0
DWIDTH 20 0
BBX 10 27 4 4
BITMAP
E000
E000
E000
1C00
1C00
1C00
1C00
0000
0000
0000
FC00
FC00
FC00
1C00
1C00
1C00
1C00
1C00
1C00
1C00
1C00
1C00
1C00
FFC0
FFC0
FFC0
FFC0
ENDCHAR
STARTCHAR 237
ENCODING 237
SWIDTH 1440 0
DWIDTH 20 0
BBX 10 27 4 4
BITMAP
03C0
03C0
03C0
1C00
1C00
1C00
1C00
0000
0000
0000
FC00
FC00
FC00
1C00
1C00
1C00
1C00
1C00
1C00
1C00
1C00
1C00
1C00
FFC0
FFC0
FFC0
FFC0
ENDCHAR
STARTCHAR 238
ENCODING 238
SWIDTH 1440 0
DWIDTH 20 0
BBX 10 27 4 4
BITMAP
1C00
1C00
1C00
E3C0
E3C0
E3C0
E3C0
0000
0000
0000
FC00
FC00
FC00
1C00
1C00
1C00
1C00
1C00
1C00
1C00
1C00
1C00
1C00
FFC0
FFC0
FFC0
FFC0
ENDCHAR
STARTCHAR 239
ENCODING 239
SWIDTH 1440 0
DWIDTH 20 0
BBX 10 24 4 4
BITMAP
E3C0
E3C0
E3C0
E3C0
0000
0000
0000
FC00
FC00
FC00
1C00
1C00
1C00
1C00
1C00
1C00
1C00
1C00
1C00
1C00
FFC0
FFC0
FFC0
FFC0
ENDCHAR
STARTCHAR 240
ENCODING 240
SWIDTH 1440 0
DWIDTH 20 0
BBX 17 30 0 4
BITMAP
0E3C00
0E3C00
0E3C00
01C000
01C000
01C000
0E3C00
0E3C00
0E3C00
0E3C00
000380
000380
000380
0FFF80
0FFF80
0FFF80
F00380
F00380
F00380
F00380
F00380
F00380
F00380
F00380
F00380
F00380
0FFC00
0FFC00
0FFC00
0FFC00
ENDCHAR
STARTCHAR 241
ENCODING 241
SWIDTH 1440 0
DWIDTH 20 0
BBX 17 27 0 4
BITMAP
0FC380
0FC380
0FC380
F1FC00
F1FC00
F1FC00
F1FC00
000000
000000
000000
F1FC00
F1FC00
F1FC00
FE0380
FE0380
FE0380
FE0380
F00380
F00380
F00380
F00380
F00380
F00380
F00380
F00380
F00380
F00380
ENDCHAR
STARTCHAR 242
ENCODING 242
SWIDTH 1440 0
DWIDTH 20 0
BBX 17 27 0 4
BITMAP
0E0000
0E0000
0E0000
01C000
01C000
01C000
01C000
000000
000000
000000
0FFC00
0FFC00
0FFC00
F00380
F00380
F00380
F00380
F00380
F00380
F00380
F00380
F00380
F00380
0FFC00
0FFC00
0FFC00
0FFC00
ENDCHAR
STARTCHAR 243
ENCODING 243
SWIDTH 1440 0
DWIDTH 20 0
BBX 17 27 0 4
BITMAP
003C00
003C00
003C00
01C000
01C000
01C000
01C000
000000
000000
000000
0FFC00
0FFC00
0FFC00
F00380
F00380
F00380
F00380
F00380
F00380
F00380
F00380
F00380
F00380
0FFC00
0FFC00
0FFC00
0FFC00
ENDCHAR
STARTCHAR 244
ENCODING 244
SWIDTH 1440 0
DWIDTH 20 0
BBX 17 27 0 4
BITMAP
01C000
01C000
01C000
0E3C00
0E3C00
0E3C00
0E3C00
000000
000000
000000
0FFC00
0FFC00
0FFC00
F00380
F00380
F00380
F00380
F00380
F00380
F00380
F00380
F00380
F00380
0FFC00
0FFC00
0FFC00
0FFC00
ENDCHAR
STARTCHAR 245
ENCODING 245
SWIDTH 1440 0
DWIDTH 20 0
BBX 17 27 0 4
BITMAP
0FC380
0FC380
0FC380
F1FC00
F1FC00
F1FC00
F1FC00
000000
000000
000000
0FFC00
0FFC00
0FFC00
F00380
F00380
F00380
F00380
F00380
F00380
F00380
F00380
F00380
F00380
0FFC00
0FFC00
0FFC00
0FFC00
ENDCHAR
STARTCHAR 246
ENCODING 246
SWIDTH 1440 0
DWIDTH 20 0
BBX 17 24 0 4
BITMAP
0E3C00
0E3C00
0E3C00
0E3C00
000000
000000
000000
0FFC00
0FFC00
0FFC00
F00380
F00380
F00380
F00380
F00380
F00380
F00380
F00380
F00380
F00380
0FFC00
0FFC00
0FFC00
0FFC00
ENDCHAR
STARTCHAR 247
ENCODING 247
SWIDTH 1440 0
DWIDTH 20 0
BBX 17 16 0 8
BITMAP
01C000
01C000
01C000
000000
000000
000000
FFFF80
FFFF80
FFFF80
FFFF80
000000
000000
000000
01C000
01C000
01C000
ENDCHAR
STARTCHAR 248
ENCODING 248
SWIDTH 1440 0
DWIDTH 20 0
BBX 17 17 0 4
BITMAP
0FFF80
0FFF80
0FFF80
F03F80
F03F80
F03F80
F03F80
F1C380
F1C380
F1C380
FE0380
FE0380
FE0380
FFFC00
FFFC00
FFFC00
FFFC00
ENDCHAR
STARTCHAR 249
ENCODING 249
SWIDTH 1440 0
DWIDTH 20 0
BBX 17 27 0 4
BITMAP
0E0000
0E0000
0E0000
01C000
01C000
01C000
01C000
000000
000000
000000
F00380
F00380
F00380
F00380
F00380
F00380
F00380
F00380
F00380
F00380
F00380
F00380
F00380
0FFC00
0FFC00
0FFC00
0FFC00
ENDCHAR
STARTCHAR 250
ENCODING 250
SWIDTH 1440 0
DWIDTH 20 0
BBX 17 27 0 4
BITMAP
003C00
003C00
003C00
01C000
01C000
01C000
01C000
000000
000000
000000
F00380
F00380
F00380
F00380
F00380
F00380
F00380
F00380
F00380
F00380
F00380
F00380
F00380
0FFC00
0FFC00
0FFC00
0FFC00
ENDCHAR
STARTCHAR 251
ENCODING 251
SWIDTH 1440 0
DWIDTH 20 0
BBX 17 27 0 4
BITMAP
01C000
01C000
01C000
0E3C00
0E3C00
0E3C00
0E3C00
000000
000000
000000
F00380
F00380
F00380
F00380
F00380
F00380
F00380
F00380
F00380
F00380
F00380
F00380
F00380
0FFC00
0FFC00
0FFC00
0FFC00
ENDCHAR
STARTCHAR 252
ENCODING 252
SWIDTH 1440 0
DWIDTH 20 0
BBX 17 24 0 4
BITMAP
0E3C00
0E3C00
0E3C00
0E3C00
000000
000000
000000
F00380
F00380
F00380
F00380
F00380
F00380
F00380
F00380
F00380
F00380
F00380
F00380
F00380
0FFC00
0FFC00
0FFC00
0FFC00
ENDCHAR
STARTCHAR 253
ENCODING 253
SWIDTH 1440 0
DWIDTH 20 0
BBX 17 33 0 -2
BITMAP
003C00
003C00
003C00
01C000
01C000
01C000
01C000
000000
000000
000000
F00380
F00380
F00380
F00380
F00380
F00380
F00380
F00380
F00380
F00380
0E3C00
0E3C00
0E3C00
01C000
01C000
01C000
01C000
0E0000
0E0000
0E0000
F00000
F00000
F00000
ENDCHAR
STARTCHAR 254
ENCODING 254
SWIDTH 1440 0
DWIDTH 20 0
BBX 17 30 0 -2
BITMAP
F00000
F00000
F00000
F00000
F00000
F00000
F00000
FFFC00
FFFC00
FFFC00
F00380
F00380
F00380
F00380
F00380
F00380
F00380
F00380
F00380
F00380
FFFC00
FFFC00
FFFC00
FFFC00
F00000
F00000
F00000
F00000
F00000
F00000
ENDCHAR
STARTCHAR 255
ENCODING 255
SWIDTH 1440 0
DWIDTH 20 0
BBX 17 30 0 -2
BITMAP
0E3C00
0E3C00
0E3C00
0E3C00
000000
000000
000000
F00380
F00380
F00380
F00380
F00380
F00380
F00380
F00380
F00380
F00380
0E3C00
0E3C00
0E3C00
01C000
01C000
01C000
01C000
0E0000
0E0000
0E0000
F00000
F00000
F00000
ENDCHAR
ENDFONT
